<svg xmlns="http://www.w3.org/2000/svg"  viewBox="0 0 24 24" width="24px" height="24px"><path d="M2.994,20.253V3.747	C2.994,3.333,3.33,3,3.745,3h16.503c0.413,0,0.749,0.333,0.749,0.747v16.507c0,0.413-0.336,0.747-0.749,0.747H3.745	C3.33,21,2.994,20.667,2.994,20.253z M19.995,17.48c0-1.507-0.856-2.186-2.373-2.84l-0.447-0.187	c-0.764-0.346-1.096-0.56-1.096-1.107c0-0.439,0.331-0.773,0.853-0.773c0.513,0,0.843,0.227,1.148,0.773l1.389-0.906	C18.883,11.4,18.067,11,16.933,11c-1.593,0-2.612,1.027-2.612,2.387c0,1.467,0.856,2.173,2.143,2.72l0.445,0.2	c0.813,0.36,1.216,0.574,1.216,1.2c0,0.44-0.532,0.68-1.128,0.68c-0.88,0-1.296-0.4-1.677-1.027l-1.403,0.947	C14.441,19.146,15.381,20,17.038,20C18.733,20,19.995,19.107,19.995,17.48z M12.995,17.16V11h-2v5.867c0,0.934-0.311,1.2-0.92,1.2	c-0.637,0-1.08-0.387-1.371-0.906l-1.509,0.906c0.437,0.934,1.508,1.921,2.992,1.921C11.831,19.987,12.995,19.08,12.995,17.16z"/></svg>